<svg xmlns="http://www.w3.org/2000/svg" version="1.1" xmlns:xlink="http://www.w3.org/1999/xlink" xmlns:svgjs="http://svgjs.dev/svgjs" width="128" height="128" viewBox="0 0 128 128"><g transform="matrix(0.8046875,0,0,0.8046875,12.333870967741937,12.333870967741937)"><svg viewBox="0 0 155 155" data-background-color="#282634" preserveAspectRatio="xMidYMid meet" height="128" width="128" xmlns="http://www.w3.org/2000/svg" xmlns:xlink="http://www.w3.org/1999/xlink"><g id="tight-bounds" transform="matrix(1,0,0,1,0.25,0.25)"><svg viewBox="0 0 154.5 154.5" height="154.5" width="154.5"><g><svg></svg></g><g><svg viewBox="0 0 154.5 154.5" height="154.5" width="154.5"><g transform="matrix(1,0,0,1,51.9968938220339,47.74637100000001)"><svg viewBox="0 0 50.5062123559322 59.007257999999986" height="59.007257999999986" width="50.5062123559322"><g><svg viewBox="0 0 50.5062123559322 59.007257999999986" height="59.007257999999986" width="50.5062123559322"><g><svg viewBox="0 0 50.5062123559322 59.007257999999986" height="59.007257999999986" width="50.5062123559322"><g id="textblocktransform"><svg viewBox="0 0 50.5062123559322 59.007257999999986" height="59.007257999999986" width="50.5062123559322" id="textblock"><g><svg viewBox="0 0 50.5062123559322 59.007257999999986" height="59.007257999999986" width="50.5062123559322"><g transform="matrix(1,0,0,1,0,0)"><svg width="50.5062123559322" viewBox="-0.2 -35.4 30.3 35.4" height="59.007257999999986" data-palette-color="#ffffff"><path d="M30.1-31.4L28.35-27.45Q23.25-30.35 17.45-30.9L17.45-30.9 17.45 0 12.5 0 12.5-30.9Q6.65-30.35 1.55-27.45L1.55-27.45-0.2-31.4Q6.5-35.4 14.9-35.4L14.9-35.4Q23.4-35.4 30.1-31.4L30.1-31.4Z" opacity="1" transform="matrix(1,0,0,1,0,0)" fill="#ffffff" class="wordmark-text-0" data-fill-palette-color="primary" id="text-0"></path></svg></g></svg></g></svg></g></svg></g></svg></g></svg></g><g><path d="M51.127 33.816A25.253 25.253 0 0 1 103.373 33.816L98.052 33.816A19.932 19.932 0 0 0 56.448 33.816L51.127 33.816M51.127 120.684A25.253 25.253 0 0 0 103.373 120.684L98.052 120.684A19.932 19.932 0 0 1 56.448 120.684L51.127 120.684" fill="#ffffff" stroke="transparent" data-fill-palette-color="tertiary"></path></g></svg></g><defs></defs></svg><rect width="154.5" height="154.5" fill="none" stroke="none" visibility="hidden"></rect></g></svg></g></svg>